<svg version="1.1" xmlns="http://www.w3.org/2000/svg" style="display: block;" viewBox="0 0 2048 2048" width="1024" height="1024" preserveAspectRatio="none">
<defs>
	<linearGradient id="Gradient1" gradientUnits="userSpaceOnUse" x1="1293.5" y1="899.171" x2="763.847" y2="1074.5">
		<stop class="stop0" offset="0" stop-opacity="1" stop-color="rgb(47,44,42)"/>
		<stop class="stop1" offset="1" stop-opacity="1" stop-color="rgb(31,47,57)"/>
	</linearGradient>
</defs>
<path transform="translate(0,0)" fill="url(#Gradient1)" d="M 1004.98 674.533 C 1008.82 674.399 1012.66 674.318 1016.5 674.289 C 1021.38 674.28 1026.26 674.573 1031.05 675.574 C 1050.98 679.744 1165.39 712.973 1177.68 720.715 C 1189.98 728.467 1201.14 740.942 1211.79 750.947 C 1229.07 767.174 1246.61 783.204 1263.48 799.856 L 1263.48 967.338 C 1263.58 1003.33 1264.45 1042.14 1262.39 1077.99 C 1259.97 1097.01 1257.9 1146.23 1245.84 1160.1 C 1228.1 1180.5 1203.35 1206.14 1184.14 1226.01 C 1170.34 1240.29 1149.64 1253.46 1134.5 1266.77 C 1124.08 1275.93 1111.31 1285.7 1099.76 1293.44 C 1086.65 1300.17 1053.54 1316.17 1039.16 1316.33 C 1027.6 1316.46 987.968 1317.8 978.351 1316.01 C 932.469 1307.49 890.663 1267.65 854.593 1239.09 C 847.231 1233.54 838.125 1226.57 832.282 1219.36 C 804.037 1184.53 776.861 1120.8 763.637 1077.77 C 768.651 1068.55 813.145 1020.74 821.269 1016.92 C 828.702 1019.66 863.243 1058.66 871.016 1066.45 C 945.272 1065.85 1019.71 1068.09 1094.17 1067.02 C 1113.43 1045.68 1141.66 1017.49 1162.18 997.885 C 1162.65 981.57 1162.56 960.291 1161.83 944.12 C 1144.71 926.315 1111.7 891.589 1092.29 876.13 C 1052.78 878.38 1000.27 876.869 959.877 876.817 C 958.116 863.995 958.939 824.646 958.923 810.335 L 959.083 676.064 C 974.389 675.772 989.69 675.261 1004.98 674.533 z"/>
<!-- trimmed: rest of SVG same as original file -->
</svg>
